<svg preserveAspectRatio="xMidYMid meet" data-bbox="10.5 39 179 122.002" viewBox="10.5 39 179 122.002" height="200" width="200" xmlns="http://www.w3.org/2000/svg" data-type="color" role="img" aria-labelledby="svgcid-mizgb8-116pp5"><defs><style>#comp-kqmrm0yt svg [data-color="1"] {fill: #FFFFFF;}</style></defs><title id="svgcid-mizgb8-116pp5">Aire Acondicionado</title>
    <g>
        <path d="M189.5 58.519C189.5 47.756 180.709 39 169.902 39H30.098C19.291 39 10.5 47.756 10.5 58.519v36.43c0 .491.038.972.074 1.453a1.366 1.366 0 0 0-.074.426c0 .251.072.483.189.686 1.268 9.551 9.477 16.953 19.409 16.953h139.804c9.931 0 18.141-7.402 19.409-16.953.117-.203.189-.435.189-.686 0-.15-.03-.291-.074-.426.036-.482.074-.963.074-1.453v-36.43zm-176.219 0c0-9.236 7.544-16.75 16.817-16.75h139.804c9.273 0 16.817 7.514 16.817 16.75v36.43c0 .167-.02.329-.025.495H13.306c-.005-.166-.025-.328-.025-.495v-36.43zm156.621 53.179H30.098c-8.151 0-14.962-5.807-16.491-13.485h172.787c-1.53 7.678-8.341 13.485-16.492 13.485z" fill="#0000A1" data-color="1"/>
        <path d="M160.395 104.568H35.801c-.767 0-1.39.62-1.39 1.385s.623 1.385 1.39 1.385h124.594c.767 0 1.39-.62 1.39-1.385s-.623-1.385-1.39-1.385z" fill="#0000A1" data-color="1"/>
        <path d="M85.56 88.935h28.879c.767 0 1.39-.62 1.39-1.385V76.734c0-.765-.623-1.385-1.39-1.385H85.56c-.767 0-1.39.62-1.39 1.385V87.55c0 .765.623 1.385 1.39 1.385zm1.391-10.816h26.099v8.046H86.951v-8.046z" fill="#0000A1" data-color="1"/>
        <path d="M22.448 88.935h13.353c.767 0 1.39-.62 1.39-1.385s-.623-1.385-1.39-1.385H22.448c-.767 0-1.39.62-1.39 1.385s.623 1.385 1.39 1.385z" fill="#0000A1" data-color="1"/>
        <path d="M40.769 88.935h3.338c.767 0 1.39-.62 1.39-1.385s-.623-1.385-1.39-1.385h-3.338c-.767 0-1.39.62-1.39 1.385s.622 1.385 1.39 1.385z" fill="#0000A1" data-color="1"/>
        <path d="M71.334 128.513c0-.816-.663-1.476-1.482-1.476s-1.482.66-1.482 1.476c0 2.094-.726 3.061-1.645 4.286-1.047 1.395-2.234 2.978-2.234 6.054s1.187 4.658 2.234 6.054c.919 1.224 1.645 2.192 1.645 4.286 0 2.092-.725 3.058-1.644 4.282-1.048 1.395-2.235 2.976-2.235 6.051 0 .816.663 1.476 1.482 1.476s1.482-.66 1.482-1.476c0-2.093.725-3.059 1.644-4.283 1.048-1.395 2.235-2.976 2.235-6.05 0-3.076-1.187-4.658-2.234-6.054-.919-1.224-1.645-2.192-1.645-4.286 0-2.094.726-3.061 1.645-4.286 1.047-1.396 2.234-2.978 2.234-6.054z" fill="#0000A1" data-color="1"/>
        <path d="M92.726 128.513c0-.816-.663-1.476-1.482-1.476s-1.482.66-1.482 1.476c0 2.094-.726 3.061-1.645 4.286-1.047 1.395-2.234 2.978-2.234 6.054s1.187 4.658 2.234 6.054c.919 1.224 1.645 2.192 1.645 4.286 0 2.092-.725 3.058-1.644 4.282-1.048 1.395-2.235 2.976-2.235 6.051 0 .816.663 1.476 1.482 1.476s1.482-.66 1.482-1.476c0-2.093.726-3.059 1.644-4.283 1.048-1.395 2.235-2.976 2.235-6.05 0-3.076-1.187-4.658-2.234-6.054-.919-1.224-1.645-2.192-1.645-4.286 0-2.094.726-3.061 1.645-4.286 1.047-1.396 2.234-2.978 2.234-6.054z" fill="#0000A1" data-color="1"/>
        <path d="M114.118 128.513c0-.816-.663-1.476-1.482-1.476s-1.482.66-1.482 1.476c0 2.094-.726 3.061-1.645 4.286-1.047 1.395-2.234 2.978-2.234 6.054s1.187 4.658 2.234 6.054c.919 1.224 1.645 2.192 1.645 4.286 0 2.092-.725 3.058-1.644 4.282-1.048 1.395-2.235 2.976-2.235 6.051 0 .816.663 1.476 1.482 1.476s1.482-.66 1.482-1.476c0-2.093.725-3.059 1.644-4.283 1.048-1.395 2.235-2.976 2.235-6.05 0-3.076-1.187-4.658-2.234-6.054-.919-1.224-1.645-2.192-1.645-4.286 0-2.094.726-3.061 1.645-4.286 1.046-1.396 2.234-2.978 2.234-6.054z" fill="#0000A1" data-color="1"/>
        <path d="M135.509 128.513c0-.816-.663-1.476-1.482-1.476s-1.482.66-1.482 1.476c0 2.094-.726 3.061-1.645 4.286-1.047 1.395-2.234 2.978-2.234 6.054s1.187 4.658 2.234 6.054c.919 1.224 1.645 2.192 1.645 4.286 0 2.092-.725 3.058-1.644 4.282-1.048 1.395-2.235 2.976-2.235 6.051 0 .816.663 1.476 1.482 1.476s1.482-.66 1.482-1.476c0-2.093.726-3.059 1.644-4.283 1.048-1.395 2.235-2.976 2.235-6.05 0-3.076-1.187-4.658-2.234-6.054-.919-1.224-1.645-2.192-1.645-4.286 0-2.094.726-3.061 1.645-4.286 1.047-1.396 2.234-2.978 2.234-6.054z" fill="#0000A1" data-color="1"/>
        <path d="M147.91 72.861h2.011l-1.467 1.675a.796.796 0 0 0 .604 1.324.796.796 0 0 0 .604-.274l2.387-2.725h8.009l-4.253 4.236-3.622-.246c-.442-.043-.825.302-.855.742s.304.822.746.851l2.226.151-1.513 1.507a.797.797 0 0 0 .567 1.364.8.8 0 0 0 .567-.234l1.512-1.506.152 2.217a.8.8 0 0 0 .8.744c.019 0 .037 0 .056-.002a.8.8 0 0 0 .746-.851l-.247-3.608 4.252-4.235v7.995l-2.736 2.377a.8.8 0 1 0 1.054 1.204l1.681-1.461v1.984a.8.8 0 0 0 .803.799.801.801 0 0 0 .803-.799v-1.984l1.68 1.461a.802.802 0 0 0 1.131-.077.796.796 0 0 0-.077-1.127l-2.735-2.377v-7.995l4.238 4.221-.247 3.609a.799.799 0 0 0 .746.851l.056.002c.418 0 .77-.323.8-.744l.152-2.217 1.526 1.52a.8.8 0 0 0 1.134 0 .797.797 0 0 0 0-1.13l-1.526-1.52 2.226-.151a.8.8 0 0 0 .746-.851.804.804 0 0 0-.855-.742l-3.622.246-4.24-4.223h8.027l2.387 2.725a.8.8 0 0 0 1.208-1.05l-1.467-1.675h1.993a.801.801 0 0 0 .803-.799.8.8 0 0 0-.803-.799h-1.993l1.467-1.675a.796.796 0 0 0-.077-1.127.804.804 0 0 0-1.132.077l-2.387 2.725h-8.027l4.24-4.223 3.622.246.056.002a.799.799 0 0 0 .054-1.595l-2.226-.151 1.526-1.52a.797.797 0 0 0 0-1.13.805.805 0 0 0-1.135 0l-1.526 1.52-.152-2.217a.798.798 0 0 0-.855-.742.8.8 0 0 0-.746.851l.247 3.609-4.238 4.221v-7.977l2.735-2.377a.796.796 0 0 0 .077-1.127.804.804 0 0 0-1.132-.077l-1.68 1.461v-2.002a.8.8 0 0 0-.803-.799.801.801 0 0 0-.803.799v2.003l-1.681-1.461a.804.804 0 0 0-1.132.077.796.796 0 0 0 .077 1.127l2.736 2.377v7.977l-4.252-4.235.247-3.608a.799.799 0 0 0-.746-.851.79.79 0 0 0-.855.742l-.152 2.217-1.512-1.506a.805.805 0 0 0-1.135 0 .797.797 0 0 0 0 1.13l1.513 1.507-2.226.151a.8.8 0 0 0-.746.851.8.8 0 0 0 .8.744c.019 0 .037 0 .056-.002l3.622-.246 4.253 4.236h-8.009l-2.387-2.725a.804.804 0 0 0-1.132-.077.796.796 0 0 0-.077 1.127l1.467 1.675h-2.011a.801.801 0 0 0-.803.799.804.804 0 0 0 .805.796z" fill="#0000A1" data-color="1"/>
    </g>
</svg>