<svg preserveAspectRatio="xMidYMid meet" data-bbox="40 29 120.004 142.1" viewBox="40 29 120.004 142.1" height="200" width="200" xmlns="http://www.w3.org/2000/svg" data-type="tint" role="img" aria-labelledby="svgcid-17jnh1-3n7h3e"><title id="svgcid-17jnh1-3n7h3e">Suministros de instalación HVAC</title>
    <g>
        <path d="M142.1 58.5v-5c2.5-1.3 4.1-3.9 4.1-6.7V36.5c0-4.1-3.4-7.5-7.5-7.5H119c-4.1 0-7.5 3.4-7.5 7.5v10.3c0 2.8 1.6 5.4 4.1 6.7v5c-7.1 2.8-12.6 8.3-15.7 15.2-3-6.9-8.6-12.4-15.7-15.2v-5c2.5-1.3 4.1-3.9 4.1-6.7V36.5c0-4.1-3.4-7.5-7.5-7.5H61.5c-4.1 0-7.5 3.4-7.5 7.5v10.3c0 2.8 1.6 5.4 4.1 6.7v5C47.3 62.8 40 73.5 40 85.2V156c0 8.3 6.8 15.1 15 15.1h32.4c5.1 0 9.8-2.6 12.6-6.9 2.8 4.3 7.5 6.9 12.6 6.9H145c8.2 0 15-6.8 15-15.1V85.1c.2-11.7-7.1-22.3-17.9-26.6zm13.3 87v10.3c0 5.7-4.6 10.3-10.2 10.3h-32.4c-5.7 0-10.2-4.6-10.2-10.3v-10.3h52.8zm-14-98.7c0 1.5-1.2 2.7-2.7 2.7H119c-1.5 0-2.7-1.2-2.7-2.7V36.5c0-1.5 1.2-2.7 2.7-2.7h19.7c1.5 0 2.7 1.2 2.7 2.7v10.3zm-20.8 7.4h16.8V57c-1.9-.4-3.8-.6-5.7-.6h-5.5c-1.9 0-3.8.2-5.7.6.1 0 .1-2.8.1-2.8zm11.1 7.1c12.6 0 23.1 10.2 23.7 22.7h-52.8c.6-12.6 11.1-22.7 23.7-22.7h5.4zm23.7 27.5v52h-52.9v-52h52.9zm-57.7 56.7v10.3c0 5.7-4.6 10.3-10.2 10.3H55c-5.7 0-10.2-4.6-10.2-10.3v-10.3h52.9zm-14-98.7c0 1.5-1.2 2.7-2.7 2.7H61.5c-1.5 0-2.7-1.2-2.7-2.7V36.5c0-1.5 1.2-2.7 2.7-2.7h19.7c1.5 0 2.7 1.2 2.7 2.7l-.2 10.3zm-20.9 7.4h16.8V57c-1.9-.4-3.8-.6-5.7-.6h-5.5c-1.9 0-3.8.2-5.7.6l.1-2.8zM74 61.3c12.6 0 23.1 10.1 23.7 22.7H44.9c.6-12.6 11.1-22.7 23.7-22.7H74zm23.7 27.5v52H44.8v-52h52.9zm31.2 43.7c7.1 0 12.7-5.7 12.7-12.8 0-4-3.1-10.2-4.9-13.5-5.1-9.3-6.9-9.3-7.8-9.3s-2.8 0-7.8 9.3c-1.8 3.3-4.9 9.5-4.9 13.5 0 7.1 5.8 12.8 12.7 12.8zm-7.9-12.8c0-3.8 5.4-13.5 7.9-17.1 2.7 3.6 7.9 13.2 7.9 17.1 0 4.4-3.6 8-7.9 8-4.4 0-7.9-3.6-7.9-8zm-49.7 12.8c7.1 0 12.7-5.7 12.7-12.8 0-4-3.1-10.2-4.9-13.5C74 97 72.2 97 71.3 97s-2.8 0-7.8 9.3c-1.8 3.3-4.9 9.5-4.9 13.5-.1 7 5.6 12.7 12.7 12.7zm-8.1-12.8c0-3.8 5.4-13.5 7.9-17.1 2.6 3.6 7.9 13.2 7.9 17.1 0 4.4-3.6 8-7.9 8s-7.9-3.6-7.9-8z" fill="#FFFFFF"/>
    </g>
</svg>